PathFileType	4	(X/Y/Z)	18_2_23_p1_0-264.trc
DataRate	CameraRate	NumFrames	NumMarkers	Units	OrigDataRate	OrigDataStartFrame	OrigNumFrames
59.0	59.0	6	27	m	59.0	165	265
Frame#	Time	RHip			RKnee			RAnkle			RBigToe			RSmallToe			RHeel			LHip			LKnee			LAnkle			LBigToe			LSmallToe			LHeel			Neck			Head			Nose			RShoulder			RElbow			RWrist			RThumb			RIndex			RPinky			LShoulder			LElbow			LWrist			LThumb			LIndex			LPinky			
		X1	Y1	Z1	X2	Y2	Z2	X3	Y3	Z3	X4	Y4	Z4	X5	Y5	Z5	X6	Y6	Z6	X7	Y7	Z7	X8	Y8	Z8	X9	Y9	Z9	X10	Y10	Z10	X11	Y11	Z11	X12	Y12	Z12	X13	Y13	Z13	X14	Y14	Z14	X15	Y15	Z15	X16	Y16	Z16	X17	Y17	Z17	X18	Y18	Z18	X19	Y19	Z19	X20	Y20	Z20	X21	Y21	Z21	X22	Y22	Z22	X23	Y23	Z23	X24	Y24	Z24	X25	Y25	Z25	X26	Y26	Z26	X27	Y27	Z27	
165	2.7966101694915255	0.26866112121209196	0.24958691988594092	1.086995973262555	0.2420067545784752	0.39149931876045957	1.5295287897460337	0.23879663062363024	0.5145018822875019	1.973278521426572	0.227840783087316	0.43985180531583884	2.065523291793268	0.27543097718871723	0.4586791927380575	2.059260490980408	0.2048732555759121	0.5881363266395737	2.038718345044653	0.06828885256053499	0.24786242300678615	1.0710001713323738	0.06744123628010526	0.37539810768375914	1.520849827255373	0.03943922194148062	0.533571641186758	1.9766835962443248	0.06066975071426305	0.4096150864826587	2.0505133222910317	0.0036171598109248785	0.43233346121561583	2.0309511872854245	0.049861755219062914	0.5672244456162354	2.029578077697964	0.20275670647375846	0.21444015896659363	0.5239161629627962	0.21949949537967448	0.0992934172213977	0.31001244227480246	0.20128792980483584	0.06367137602812108	0.43712393872356536	0.32750437356926787	0.19662331832554428	0.5538529093841473	0.4421950229471457	0.1645899857915786	0.3830201221032237	0.5078294689200056	0.10056703241380262	0.16471209680937082	0.43032350462676566	0.022187017389189566	0.07138247710439767	0.47842725752729104	0.007653218255446081	0.029225071287801385	0.559355965976353	0.018262285362237524	0.04845276589990426	0.07136822112380295	0.21634937818516023	0.5512081425399895	-0.010292819266664557	0.08416042192462038	0.35952643558030223	-0.05346323022170905	0.07285494418052454	0.1519815214166261	0.0004180577105882554	-0.0012746145431263827	0.044947551997709174	-0.03478640575128814	0.028118007335626707	0.004377605696793573	-0.08600490735586634	-0.0037164258426373364	0.02773105408769507
166	2.8135593220338984	0.2687010433454222	0.24986304856514702	1.0871220965809367	0.24200600513870313	0.3914916670725132	1.5295031279322309	0.23882218514387382	0.5144126136567246	1.9731894213188097	0.2279227399273929	0.440136017634591	2.0654169941484333	0.27911819431022744	0.4720122259789295	2.0653535102510054	0.20442532049567527	0.5824766075185951	2.037957465524695	0.06824288257957725	0.2479826194931142	1.0710391640001993	0.07212574121083352	0.36166494736695	1.5164134708751424	0.04065590590921345	0.5325366655733517	1.9714756734835832	0.06080964566635527	0.4097822017616901	2.0504856781701437	0.003594867361361601	0.4324270233947997	2.0311623041087907	0.050979989400180996	0.5663725176078248	2.024404064697026	0.20269300109637858	0.2146323470641336	0.5240506296773172	0.21948934635802914	0.09944339638946031	0.3100340331947479	0.20130595278091226	0.06376321086973914	0.4372030025058329	0.3236363283468882	0.1963141571770581	0.5538011595231109	0.44250535536640745	0.16620875683350583	0.38576129877253534	0.5076835565966737	0.10048858112780329	0.1617336814603111	0.4302370121552981	0.02207590498619243	0.07488966199704455	0.47606293445880604	0.01799280268918975	0.02732393382892051	0.5592807413241769	0.01796209637322922	0.04754898839835375	0.0713605078394301	0.21633769399277036	0.5512617571164786	-0.014269616880658042	0.09412726183663123	0.3589374966115187	-0.053574269015140494	0.0738820072967862	0.1552570725855808	0.002295691374604085	0.007354528657708656	0.04335036019985757	-0.03498131454386756	0.028347077061509518	0.004957352054151355	-0.0935028297091544	0.00283340928816738	0.02557627082644362
167	2.830508474576271	0.27216719751248036	0.26074077561860654	1.0889838916428234	0.24122384107718972	0.3890315861002451	1.5244828175209775	0.2377947287928835	0.5114255539785835	1.9684000497722063	0.22791284437761983	0.4401463714596075	2.0656272596175667	0.27916400943168074	0.47213819386004824	2.0655793297375737	0.2043484143547195	0.5824499619758148	2.0380007473259956	0.06870183973820733	0.24999779203341368	1.075173806575451	0.06752068464694454	0.3755219839617226	1.5207838925969732	0.04062315341467929	0.5325330129556011	1.971517151885177	0.061446973875607505	0.4130561907916777	2.056245787022628	0.0036338933879271782	0.43223274777952986	2.0314003851730074	0.05095316333290838	0.566195085242586	2.024293847182742	0.2026642498207935	0.2145805157723186	0.5240884847873953	0.21949039752821176	0.09949328616562521	0.31005362640111767	0.20129802075648096	0.06378263294205792	0.43721934370389776	0.3236283261796867	0.1962208495997387	0.553905326434958	0.44225646432803656	0.16644863344523014	0.38935259102011427	0.5055986828791597	0.11170486857149589	0.16326117055712452	0.4269778171194815	0.012773607200304201	0.07682742650856648	0.47917126760192846	0.025123706552617264	0.02901348525726231	0.5576128220818194	0.028188867654747218	0.0459624679805177	0.07130456385369804	0.21627928244106473	0.5512164975141093	-0.014481267508055281	0.09449355898981697	0.35890555071734437	-0.05365645076707233	0.07387369825856485	0.1523379941642464	0.002109049548083078	0.0077289624223176746	0.042911533181288326	-0.03204995380050385	0.037906370728994075	-0.001481678167816313	-0.09026570982684844	0.0025479914371314997	0.025059361374194
168	2.847457627118644	0.27290370691839555	0.26300769735223734	1.0929793572179667	0.24640381147888463	0.377526835708095	1.5253350066363947	0.23927756255878066	0.5126850969791925	1.9773533312018414	0.22799576205748273	0.4402786412929902	2.065234126547374	0.27523786754867235	0.45891852755987494	2.0588840201962393	0.20953917784470102	0.596847139704509	2.0538509474029225	0.06872257536059054	0.2498768449670924	1.0751336181984075	0.07246779242862636	0.3597570273545514	1.519981935615647	0.04152576213335546	0.536174007050396	1.9772814104997294	0.061717135420313346	0.41321134258422354	2.056210044744979	0.0037450638168473626	0.43186940691620357	2.0317602685485063	0.05088209412539841	0.566535925736052	2.02426234613971	0.20255450327891392	0.21453131426245065	0.5239627195643224	0.21938932070646153	0.09955216212165484	0.30998298016992226	0.20126720476702734	0.0639521284393989	0.4372258196953211	0.3239936227147864	0.19786495839582022	0.5544641346292967	0.4424501954345196	0.16688911245665583	0.38932523538197994	0.5055757305253613	0.11163433638209085	0.16323351670686556	0.4295908555744035	0.0031591646093009264	0.07785374683820594	0.4759953365330281	0.017604944060763676	0.027509878887541268	0.5597100493147131	0.01800821218314084	0.05083765307950557	0.06491523524032818	0.20250717925374578	0.5478701423598974	-0.01837900458873496	0.10437415935967885	0.3558801295348043	-0.05720360085947675	0.07262419255005353	0.1553395008242066	0.001554454124169544	0.010202008044396547	0.04698411110131829	-0.04202372438206846	0.03650310632563717	0.009439798746795515	-0.08972019496628592	0.0014275305605123186	0.027530192341356487
169	2.864406779661017	0.2729158451063756	0.2627880261677447	1.0928348038407494	0.2464558205084737	0.3774569672836073	1.5254782115791046	0.2392773985490991	0.5126091795696278	1.9772265776872044	0.22789301968152417	0.4400297861826195	2.065444270081687	0.27516725156525235	0.4590236382481812	2.0590656668187863	0.20587371307216107	0.582465103006398	2.048034497026647	0.06932945118053128	0.249079217525277	1.0713079433712214	0.0725706087134168	0.35987318312147276	1.5199947287958617	0.04068147121493935	0.5328299026745016	1.971489517750189	0.06182405779267782	0.4124692812027212	2.05570619436542	0.0037871815075766527	0.4316707393388957	2.0319139289719748	0.0508514634562182	0.5665131448741555	2.024211635708319	0.20256135086717136	0.21439253112093343	0.5238391319160784	0.21940158709292987	0.09962545307824894	0.3100520105319028	0.20123074653234357	0.06394550600874241	0.43719098656538186	0.32407274957387444	0.1976800531293406	0.5544311315242069	0.4424244055138262	0.16686796111480337	0.38935450040511865	0.5056085134202558	0.11201645053124866	0.16309190963656275	0.4306765114606404	0.02266377695808145	0.07693677331715634	0.4765100713366451	0.016706022646642078	0.033197089158301364	0.5582639829112847	0.029342420365632994	0.05026845085814046	0.0648708056677954	0.20251373851816157	0.5478768583071648	-0.014267455423642302	0.09436258831099498	0.3567987422118042	-0.057201458887641506	0.07299783594483003	0.15522822884292617	0.00026450762469108595	-0.0009349850634207289	0.04297547159375614	-0.041691770362194826	0.034732876013515435	0.002049453955929611	-0.08830051192896476	0.0002723018673383007	0.026831471633270685
170	2.8813559322033897	0.27233078921763026	0.26076377622565966	1.0887779769974941	0.24637756733902644	0.3775530836149608	1.5253405804851439	0.2393385321548598	0.5127378309673007	1.9771676801372131	0.2278917692146037	0.4402710257827834	2.065148857692408	0.27512077075259456	0.45863959568787177	2.0585625858413255	0.20958792639799578	0.5970894078958627	2.053527131252339	0.06930753958005394	0.24903640118180345	1.071286891428257	0.06916016801236276	0.34873510379473166	1.5124848649788571	0.04070184649021381	0.5323936478688096	1.9709600356613381	0.061252614109254734	0.4095090373790832	2.049905973115176	0.0037824090344308003	0.4318817309808671	2.0310746384027585	0.050898467234744484	0.5660230554625496	2.0240984318445054	0.19975834233488898	0.2029933997358604	0.5240007766930488	0.21574236393666626	0.11036149356103803	0.3090653492260412	0.2011838224175838	0.06397844489560033	0.43716425530593517	0.3240286552975055	0.1977463037150159	0.5544267053730844	0.4424230475459948	0.1670430150157022	0.389333808584036	0.5057796311437773	0.11218051640017102	0.16583730115108047	0.43309095611586207	0.013340121431614628	0.07866229448323328	0.47954922193703936	0.025639809070930462	0.02799258289015224	0.5581327731140453	0.02806864764138338	0.04784163343022058	0.06478190082711238	0.2023882296353572	0.5479535932698374	-0.010359829127956771	0.08440460753108465	0.35971141658522854	-0.057413534704243416	0.07289011884480251	0.1551403052768428	-0.0022536081962120395	0.004214878043068394	0.03800921751295778	-0.03698633257453137	0.031049492067104275	0.0002726648702418686	-0.08833561361404242	-0.007653969682296789	0.027258555104297588
